<svg width="512" height="512" viewBox="0 0 512 512" fill="none" xmlns="http://www.w3.org/2000/svg">
  <defs>
    <linearGradient id="emberGlow" x1="256" y1="56" x2="256" y2="456" gradientUnits="userSpaceOnUse">
      <stop stop-color="#FFF7ED"/>
      <stop offset="1" stop-color="#FFE7CF"/>
    </linearGradient>
    <linearGradient id="emberFire" x1="256" y1="84" x2="256" y2="438" gradientUnits="userSpaceOnUse">
      <stop stop-color="#FDBA74"/>
      <stop offset="0.45" stop-color="#F97316"/>
      <stop offset="1" stop-color="#C2410C"/>
    </linearGradient>
    <linearGradient id="emberCore" x1="256" y1="170" x2="256" y2="410" gradientUnits="userSpaceOnUse">
      <stop stop-color="#FED7AA"/>
      <stop offset="1" stop-color="#EA580C"/>
    </linearGradient>
  </defs>

  <circle cx="256" cy="256" r="214" fill="url(#emberGlow)"/>

  <path d="M256 88C286 132 330 161 330 227C330 279 295 322 256 362C217 322 182 279 182 227C182 160 226 132 256 88Z" fill="url(#emberFire)"/>

  <path d="M256 172C273 200 296 219 296 256C296 286 277 311 256 333C235 311 216 286 216 256C216 219 239 200 256 172Z" fill="url(#emberCore)"/>

  <path d="M152 292C186 257 212 255 236 274C220 286 203 306 192 330C170 326 160 311 152 292Z" fill="#FB923C"/>
  <path d="M360 292C326 257 300 255 276 274C292 286 309 306 320 330C342 326 352 311 360 292Z" fill="#FB923C"/>

  <path d="M203 352C222 332 243 322 256 320C269 322 290 332 309 352C293 386 273 408 256 424C239 408 219 386 203 352Z" fill="#C2410C"/>
</svg>
